solid OpenSCAD_Model
  facet normal 0 -1 0
    outer loop
      vertex 0 0 0
      vertex 20.1 0 6.5
      vertex 10 0 6.5
    endloop
  endfacet
  facet normal 0 -1 0
    outer loop
      vertex 0 0 0
      vertex 30 0 8
      vertex 20.1 0 6.5
    endloop
  endfacet
  facet normal 0 -1 0
    outer loop
      vertex 0 0 0
      vertex 10 0 6.5
      vertex 0 0 10
    endloop
  endfacet
  facet normal 0 -1 0
    outer loop
      vertex 0 0 10
      vertex 10 0 6.5
      vertex 10 0 10
    endloop
  endfacet
  facet normal -1 0 0
    outer loop
      vertex 0 0 0
      vertex 0 0 10
      vertex 0 30 10
    endloop
  endfacet
  facet normal 0 0 1
    outer loop
      vertex 0 0 10
      vertex 10 0 10
      vertex 10 30 10
    endloop
  endfacet
  facet normal 0 -1 0
    outer loop
      vertex 0 0 0
      vertex 40.1 0 8
      vertex 30 0 8
    endloop
  endfacet
  facet normal 0 -1 0
    outer loop
      vertex 20.1 0 10
      vertex 20.1 0 6.5
      vertex 30 0 8
    endloop
  endfacet
  facet normal -1 0 0
    outer loop
      vertex 0 0 0
      vertex 0 30 10
      vertex 0 30 0
    endloop
  endfacet
  facet normal 0 0 -1
    outer loop
      vertex 0 0 0
      vertex 0 30 0
      vertex 50 30 0
    endloop
  endfacet
  facet normal 0 1 0
    outer loop
      vertex 0 30 0
      vertex 10 30 6.5
      vertex 50 30 0
    endloop
  endfacet
  facet normal 0 0 1
    outer loop
      vertex 0 0 10
      vertex 10 30 10
      vertex 0 30 10
    endloop
  endfacet
  facet normal 0 1 0
    outer loop
      vertex 0 30 0
      vertex 0 30 10
      vertex 10 30 6.5
    endloop
  endfacet
  facet normal 0 1 0
    outer loop
      vertex 0 30 10
      vertex 10 30 10
      vertex 10 30 6.5
    endloop
  endfacet
  facet normal 0 0 1
    outer loop
      vertex 20.1 0 10
      vertex 30 30 10
      vertex 20.1 30 10
    endloop
  endfacet
  facet normal 0 1 0
    outer loop
      vertex 20.1 30 10
      vertex 30 30 8
      vertex 20.1 30 6.5
    endloop
  endfacet
  facet normal 0 -1 0
    outer loop
      vertex 0 0 0
      vertex 50 0 0
      vertex 40.1 0 8
    endloop
  endfacet
  facet normal 0 0 -1
    outer loop
      vertex 0 0 0
      vertex 50 30 0
      vertex 50 0 0
    endloop
  endfacet
  facet normal 1 0 0
    outer loop
      vertex 50 0 0
      vertex 50 30 0
      vertex 50 0 10
    endloop
  endfacet
  facet normal 0 -1 0
    outer loop
      vertex 20.1 0 10
      vertex 30 0 8
      vertex 30 0 10
    endloop
  endfacet
  facet normal 0 0 1
    outer loop
      vertex 20.1 0 10
      vertex 30 0 10
      vertex 30 30 10
    endloop
  endfacet
  facet normal 0 -1 0
    outer loop
      vertex 50 0 0
      vertex 50 0 10
      vertex 40.1 0 8
    endloop
  endfacet
  facet normal 0 -1 0
    outer loop
      vertex 50 0 10
      vertex 40.1 0 10
      vertex 40.1 0 8
    endloop
  endfacet
  facet normal 0 0 1
    outer loop
      vertex 50 0 10
      vertex 50 30 10
      vertex 40.1 0 10
    endloop
  endfacet
  facet normal 0 1 0
    outer loop
      vertex 50 30 0
      vertex 10 30 6.5
      vertex 20.1 30 6.5
    endloop
  endfacet
  facet normal 0 1 0
    outer loop
      vertex 50 30 0
      vertex 20.1 30 6.5
      vertex 30 30 8
    endloop
  endfacet
  facet normal 0 1 0
    outer loop
      vertex 20.1 30 10
      vertex 30 30 10
      vertex 30 30 8
    endloop
  endfacet
  facet normal 1 0 0
    outer loop
      vertex 50 0 10
      vertex 50 30 0
      vertex 50 30 10
    endloop
  endfacet
  facet normal 0 0 1
    outer loop
      vertex 50 30 10
      vertex 40.1 30 10
      vertex 40.1 0 10
    endloop
  endfacet
  facet normal 0 1 0
    outer loop
      vertex 50 30 0
      vertex 30 30 8
      vertex 40.1 30 8
    endloop
  endfacet
  facet normal 0 1 0
    outer loop
      vertex 50 30 0
      vertex 40.1 30 8
      vertex 50 30 10
    endloop
  endfacet
  facet normal 0 1 0
    outer loop
      vertex 50 30 10
      vertex 40.1 30 8
      vertex 40.1 30 10
    endloop
  endfacet
  facet normal 1 0 0
    outer loop
      vertex 10 0 10
      vertex 10 0 6.5
      vertex 10 30 10
    endloop
  endfacet
  facet normal 0 0 1
    outer loop
      vertex 10 0 6.5
      vertex 20.1 0 6.5
      vertex 20.1 30 6.5
    endloop
  endfacet
  facet normal -1 0 0
    outer loop
      vertex 20.1 0 6.5
      vertex 20.1 0 10
      vertex 20.1 30 6.5
    endloop
  endfacet
  facet normal 1 0 0
    outer loop
      vertex 10 30 6.5
      vertex 10 30 10
      vertex 10 0 6.5
    endloop
  endfacet
  facet normal 0 0 1
    outer loop
      vertex 20.1 30 6.5
      vertex 10 30 6.5
      vertex 10 0 6.5
    endloop
  endfacet
  facet normal -1 0 0
    outer loop
      vertex 20.1 0 10
      vertex 20.1 30 10
      vertex 20.1 30 6.5
    endloop
  endfacet
  facet normal 1 0 0
    outer loop
      vertex 30 0 10
      vertex 30 0 8
      vertex 30 30 10
    endloop
  endfacet
  facet normal 0 0 1
    outer loop
      vertex 30 0 8
      vertex 40.1 0 8
      vertex 40.1 30 8
    endloop
  endfacet
  facet normal -1 0 0
    outer loop
      vertex 40.1 0 8
      vertex 40.1 0 10
      vertex 40.1 30 8
    endloop
  endfacet
  facet normal 1 0 0
    outer loop
      vertex 30 0 8
      vertex 30 30 8
      vertex 30 30 10
    endloop
  endfacet
  facet normal 0 0 1
    outer loop
      vertex 30 0 8
      vertex 40.1 30 8
      vertex 30 30 8
    endloop
  endfacet
  facet normal -1 0 0
    outer loop
      vertex 40.1 0 10
      vertex 40.1 30 10
      vertex 40.1 30 8
    endloop
  endfacet
endsolid OpenSCAD_Model
